<svg width="684" height="550" viewBox="0 0 684 550" fill="none" xmlns="http://www.w3.org/2000/svg">
<g filter="url(#filter0_d_0_741)">
<path fill-rule="evenodd" clip-rule="evenodd" d="M130.421 442.024C114.058 458.564 82.9787 455.617 82.9999 481.18C83.0175 503.851 108.933 514.453 127.38 521.07C188.057 542.828 237.358 550.162 296.433 528.115C337.236 512.895 552.786 389.523 582.641 370.046C623.772 343.205 532.123 317.779 479.827 309.256C403.292 296.776 130.421 442.024 130.421 442.024Z" fill="#FA7564"/>
<path fill-rule="evenodd" clip-rule="evenodd" d="M449.106 202.695C476.369 168.03 465.893 137.018 461.142 98.9437C458.267 75.9139 455.632 34.7588 430.119 19.8112C406.366 5.88715 366.779 6.58679 344.416 16.8023C279.56 46.4426 172.793 111.634 119.686 154.595C73.3724 192.055 80.5081 239.724 90.0001 287.924C94.381 310.161 119.347 350.072 151.191 353.453C186.249 357.179 418.384 241.751 449.106 202.695Z" fill="#02ECF1"/>
<path fill-rule="evenodd" clip-rule="evenodd" d="M455 261.553H503V200.918H455V261.553Z" fill="#02ECF1"/>
<path fill-rule="evenodd" clip-rule="evenodd" d="M465.025 207.97L465.796 207.649C466.078 207.536 466.326 207.444 466.552 207.365C467.132 207.814 467.038 207.877 467.191 208.404L460.873 211.23V211.246L463.599 212.462C464.959 213.074 466.152 213.616 467.183 214.057C467.03 214.605 467.155 214.648 466.544 215.118C466.203 215.004 465.897 214.877 465.628 214.755C463.825 213.951 461.498 212.925 458.625 211.63V211.21C458.625 211.16 458.72 211.095 458.924 211.009C458.844 211.038 458.771 211.059 458.699 211.088V210.996C458.699 210.91 458.713 210.818 458.822 210.754L465.025 207.97Z" fill="white"/>
<path fill-rule="evenodd" clip-rule="evenodd" d="M465.025 248.278L465.796 247.957C466.078 247.844 466.326 247.752 466.552 247.673C467.132 248.122 467.038 248.185 467.191 248.712L460.873 251.538V251.554L463.599 252.77C464.959 253.382 466.152 253.924 467.183 254.365C467.03 254.913 467.155 254.956 466.544 255.426C466.203 255.311 465.897 255.184 465.628 255.062C463.825 254.258 461.498 253.233 458.625 251.938V251.517C458.625 251.468 458.72 251.403 458.924 251.317C458.844 251.346 458.771 251.368 458.699 251.396V251.304C458.699 251.218 458.713 251.125 458.822 251.061L465.025 248.278Z" fill="white"/>
<path fill-rule="evenodd" clip-rule="evenodd" d="M473.723 212.256H498.293V209.723H473.723V212.256Z" fill="white"/>
<path fill-rule="evenodd" clip-rule="evenodd" d="M479.21 221.119H498.293V218.587H479.21V221.119Z" fill="white"/>
<path fill-rule="evenodd" clip-rule="evenodd" d="M487.832 228.717H498.293V226.185H487.832V228.717Z" fill="white"/>
<path fill-rule="evenodd" clip-rule="evenodd" d="M473.723 252.565H498.293V250.032H473.723V252.565Z" fill="white"/>
<path fill-rule="evenodd" clip-rule="evenodd" d="M479.21 243.701H498.293V241.169H479.21V243.701Z" fill="white"/>
<path fill-rule="evenodd" clip-rule="evenodd" d="M487.832 236.103H498.293V233.571H487.832V236.103Z" fill="white"/>
<path fill-rule="evenodd" clip-rule="evenodd" d="M470.597 247.136L468.038 256.159L469.876 256.304L472.434 247.281L470.597 247.136Z" fill="white"/>
<path fill-rule="evenodd" clip-rule="evenodd" d="M487.173 268.057L488.138 276.083L493.912 290.76L488.632 292.35L484.571 277.042L484.04 268.411L487.173 268.057Z" fill="#250F8A"/>
<path fill-rule="evenodd" clip-rule="evenodd" d="M499.512 306.868L496.933 332.411L497.792 354.865H488.906L488.428 353.194L494.519 352.398L491.27 332.515L488.339 307.79L499.512 306.868Z" fill="white"/>
<path fill-rule="evenodd" clip-rule="evenodd" d="M502.447 306.582L504.468 328.34L518.072 346.036L516.448 354.386H512.387L514.823 352.597L515.23 347.228L502.235 332.913L490.458 307.266L502.447 306.582Z" fill="#E7EEFA"/>
<path fill-rule="evenodd" clip-rule="evenodd" d="M478.013 271.479L480.85 272.399C482.004 275.671 483.926 278.632 486.463 281.045L491.773 286.097L498.31 290.42L503.166 308.06L487.974 309.464L487.472 290.027L481.832 283.122C479.512 280.284 477.943 276.93 477.263 273.356L478.013 271.479Z" fill="#250F8A"/>
<path fill-rule="evenodd" clip-rule="evenodd" d="M481.147 273.367L477.411 274.665L474.999 262.272L475.724 261.22L481.147 273.367Z" fill="#FFD0D4"/>
<path fill-rule="evenodd" clip-rule="evenodd" d="M481.991 273.132L477.29 275.374C477.29 275.374 476.326 274.548 476.445 274.076C476.566 273.604 476.807 273.25 477.169 273.014C477.531 272.777 481.148 271.479 481.148 271.479L481.991 273.132Z" fill="#472BC7"/>
<path fill-rule="evenodd" clip-rule="evenodd" d="M484.04 268.411L483.8 261.801H486.451L487.173 268.057L484.04 268.411Z" fill="#FFD0D4"/>
<path fill-rule="evenodd" clip-rule="evenodd" d="M477.982 261.673C477.946 261.649 476.283 260.754 476.248 260.638C476.213 260.521 475.037 257.743 475.037 257.743L473.345 257.977L473.827 262.541L476.158 263.091L477.982 261.673Z" fill="#FFD0D4"/>
<path fill-rule="evenodd" clip-rule="evenodd" d="M502.366 282.672C501.233 285.214 497.564 287.829 494.967 286.719C492.371 285.61 491.833 281.197 492.965 278.655C494.098 276.113 497.12 274.951 499.716 276.061C502.312 277.17 503.499 280.13 502.366 282.672Z" fill="#FFD0D4"/>
<path fill-rule="evenodd" clip-rule="evenodd" d="M494.626 277.104C494.176 276.792 493.71 276.503 493.228 276.239C492.881 276.051 492.337 275.935 492.183 276.292C492.108 276.47 492.187 276.67 492.266 276.845C492.528 277.432 492.817 278.05 493.354 278.418C493.806 278.727 494.409 278.815 494.934 278.647C495.408 278.496 495.871 278.143 495.92 277.665C495.444 277.574 495.024 277.381 494.626 277.104Z" fill="#FFD0D4"/>
<path fill-rule="evenodd" clip-rule="evenodd" d="M495.544 286.898C498.079 287.448 501.315 285.031 502.366 282.672C503.498 280.129 502.313 277.169 499.717 276.061C499.56 275.993 499.398 275.961 499.239 275.911C498.942 276.219 498.702 276.585 498.595 276.933C498.177 278.291 498.494 279.895 499.371 281.024C499.371 281.024 496.434 286.444 495.544 286.898Z" fill="black"/>
<path fill-rule="evenodd" clip-rule="evenodd" d="M499.713 281.837C500.091 282.03 500.382 282.363 500.563 282.739C501.154 283.95 499.753 285.139 498.558 284.981C498.172 284.931 497.806 284.779 497.469 284.587C497.179 284.42 496.895 284.205 496.765 283.899C496.639 283.604 496.68 283.259 496.816 282.969C496.952 282.679 497.178 282.437 497.421 282.225C497.977 281.74 499.03 281.489 499.713 281.837Z" fill="#FFD0D4"/>
<path fill-rule="evenodd" clip-rule="evenodd" d="M185.964 419.65H443.218V154.824H185.964V419.65Z" fill="#FFDA4F"/>
<path fill-rule="evenodd" clip-rule="evenodd" d="M179.367 419.65H436.621V154.824H179.367V419.65Z" fill="white"/>
<path fill-rule="evenodd" clip-rule="evenodd" d="M179.367 175.451H436.621V154.824H179.367V175.451Z" fill="#FFCA00"/>
<path fill-rule="evenodd" clip-rule="evenodd" d="M258.079 357.124C257.746 357.036 257.412 356.992 257.081 356.976C257.009 356.974 256.938 356.983 256.867 356.983C256.599 356.983 256.333 357.001 256.073 357.047C256.022 357.055 255.974 357.07 255.922 357.081C255.635 357.141 255.358 357.226 255.089 357.338C255.071 357.346 255.053 357.353 255.034 357.362C253.812 357.889 252.826 358.91 252.444 360.27C251.777 362.662 252.832 366.498 255.274 367.153C256.408 367.458 257.641 367.017 258.705 366.224C258.705 366.224 258.706 366.221 258.707 366.221C259.111 365.92 259.488 365.57 259.828 365.187C259.84 365.172 259.852 365.157 259.866 365.143C260.012 364.974 260.152 364.799 260.284 364.62C260.303 364.594 260.324 364.567 260.343 364.539C260.48 364.348 260.607 364.153 260.721 363.955C260.737 363.929 260.748 363.904 260.764 363.877C260.858 363.71 260.942 363.541 261.017 363.371C261.04 363.32 261.062 363.27 261.084 363.22C261.165 363.026 261.236 362.832 261.29 362.641C261.457 362.044 261.493 361.44 261.414 360.863C261.177 359.128 259.911 357.616 258.079 357.124Z" fill="#E5FDFD"/>
<path fill-rule="evenodd" clip-rule="evenodd" d="M247.396 342.024H268.056V342.026C268.056 342.898 268.606 343.642 269.384 343.951L260.622 368.368L251.774 367.675L246.297 343.213C246.81 342.978 247.206 342.55 247.396 342.024ZM243.809 342.694L243.632 342.719L246.818 369.409L249.296 394.365L251.4 419.65H255.087L256.061 394.083L258.475 393.983L260.027 419.65H264.266L265.932 393.672L265.578 370.449L272.304 343.067L272.031 343.028C272.199 342.73 272.304 342.393 272.304 342.026V342.024H287.984V297.011H228.448V342.024H243.408C243.498 342.274 243.634 342.499 243.809 342.694Z" fill="#E5FDFD"/>
<path fill-rule="evenodd" clip-rule="evenodd" d="M354.127 341.003L357.107 358.564H350.79L353.77 341.003H354.127ZM382.236 341.003L379.256 358.564H358.342L355.362 341.003H382.236ZM383.829 341.003L386.809 358.564H380.491L383.471 341.003H383.829ZM388.971 371.289H378.33L380.289 359.757H387.012L388.971 371.289ZM391.129 384.013H376.172L378.128 372.482H389.173L391.129 384.013ZM393.288 396.736H374.012L375.969 385.205H391.332L393.288 396.736ZM395.449 409.461H371.852L373.808 397.929H393.492L395.449 409.461ZM370.616 409.461H366.982L365.024 397.929H372.574L370.616 409.461ZM342.15 409.461L344.107 397.929H363.79L365.748 409.461H342.15ZM346.267 385.205H361.63L363.588 396.736H344.309L346.267 385.205ZM348.427 372.482H359.47L361.427 384.013H346.47L348.427 372.482ZM360.502 371.289L358.544 359.757H379.054L377.096 371.289H360.502ZM374.734 385.205L372.777 396.736H364.822L362.866 385.205H374.734ZM362.662 384.013L360.704 372.482H376.893L374.936 384.013H362.662ZM350.587 359.757H357.309L359.268 371.289H348.629L350.587 359.757ZM339.185 419.65H340.42L341.947 410.654H365.95L367.477 419.65H368.712L367.186 410.654H370.414L368.886 419.65H370.122L371.649 410.654H395.652L397.179 419.65H398.413L385.065 341.003H387.634V337.424H351.085V341.003H352.535L339.185 419.65Z" fill="black"/>
<path fill-rule="evenodd" clip-rule="evenodd" d="M526.814 257.131H575.121V137.096H526.814V257.131Z" fill="#FFCA00"/>
<path fill-rule="evenodd" clip-rule="evenodd" d="M538.187 143.137L538.959 142.816C539.242 142.703 539.489 142.611 539.715 142.532C540.296 142.981 540.201 143.044 540.354 143.571L534.036 146.397V146.413L536.762 147.629C538.122 148.241 539.315 148.783 540.347 149.224C540.193 149.772 540.318 149.815 539.707 150.285C539.366 150.17 539.06 150.043 538.791 149.922C536.988 149.117 534.661 148.092 531.789 146.797V146.377C531.789 146.327 531.884 146.262 532.087 146.178C532.008 146.205 531.934 146.226 531.863 146.255V146.163C531.863 146.077 531.876 145.984 531.986 145.92L538.187 143.137Z" fill="white"/>
<path fill-rule="evenodd" clip-rule="evenodd" d="M538.187 183.445L538.959 183.124C539.242 183.011 539.489 182.918 539.715 182.84C540.296 183.289 540.201 183.352 540.354 183.879L534.036 186.705V186.719L536.762 187.937C538.122 188.549 539.315 189.091 540.347 189.532C540.193 190.08 540.318 190.123 539.707 190.593C539.366 190.478 539.06 190.351 538.791 190.229C536.988 189.425 534.661 188.4 531.789 187.105V186.684C531.789 186.635 531.884 186.57 532.087 186.484C532.008 186.513 531.934 186.535 531.863 186.563V186.471C531.863 186.385 531.876 186.292 531.986 186.228L538.187 183.445Z" fill="white"/>
<path fill-rule="evenodd" clip-rule="evenodd" d="M546.887 147.423H571.457V144.89H546.887V147.423Z" fill="white"/>
<path fill-rule="evenodd" clip-rule="evenodd" d="M552.374 156.286H571.457V153.754H552.374V156.286Z" fill="white"/>
<path fill-rule="evenodd" clip-rule="evenodd" d="M560.995 163.884H571.457V161.352H560.995V163.884Z" fill="white"/>
<path fill-rule="evenodd" clip-rule="evenodd" d="M546.887 187.732H571.457V185.199H546.887V187.732Z" fill="white"/>
<path fill-rule="evenodd" clip-rule="evenodd" d="M552.374 178.867H571.457V176.335H552.374V178.867Z" fill="white"/>
<path fill-rule="evenodd" clip-rule="evenodd" d="M560.995 171.271H571.457V168.738H560.995V171.271Z" fill="white"/>
<path fill-rule="evenodd" clip-rule="evenodd" d="M543.76 182.303L541.201 191.326L543.04 191.471L545.598 182.448L543.76 182.303Z" fill="white"/>
<path fill-rule="evenodd" clip-rule="evenodd" d="M538.187 197.91L538.959 197.59C539.242 197.476 539.489 197.384 539.715 197.306C540.296 197.754 540.201 197.817 540.354 198.345L534.036 201.171V201.186L536.762 202.403C538.122 203.015 539.315 203.557 540.347 203.998C540.193 204.546 540.318 204.588 539.707 205.058C539.366 204.944 539.06 204.816 538.791 204.696C536.988 203.891 534.661 202.866 531.789 201.57V201.149C531.789 201.1 531.884 201.036 532.087 200.95C532.008 200.979 531.934 201 531.863 201.029V200.937C531.863 200.851 531.876 200.758 531.986 200.694L538.187 197.91Z" fill="white"/>
<path fill-rule="evenodd" clip-rule="evenodd" d="M538.187 238.219L538.959 237.898C539.242 237.784 539.489 237.691 539.715 237.614C540.296 238.062 540.201 238.126 540.354 238.653L534.036 241.479V241.493L536.762 242.711C538.122 243.323 539.315 243.865 540.347 244.306C540.193 244.854 540.318 244.897 539.707 245.367C539.366 245.252 539.06 245.124 538.791 245.003C536.988 244.199 534.661 243.174 531.789 241.877V241.457C531.789 241.408 531.884 241.344 532.087 241.258C532.008 241.287 531.934 241.308 531.863 241.337V241.245C531.863 241.159 531.876 241.066 531.986 241.002L538.187 238.219Z" fill="white"/>
<path fill-rule="evenodd" clip-rule="evenodd" d="M546.887 202.197H571.457V199.665H546.887V202.197Z" fill="white"/>
<path fill-rule="evenodd" clip-rule="evenodd" d="M552.374 211.061H571.457V208.528H552.374V211.061Z" fill="white"/>
<path fill-rule="evenodd" clip-rule="evenodd" d="M560.995 218.657H571.457V216.125H560.995V218.657Z" fill="white"/>
<path fill-rule="evenodd" clip-rule="evenodd" d="M546.887 242.505H571.457V239.972H546.887V242.505Z" fill="white"/>
<path fill-rule="evenodd" clip-rule="evenodd" d="M552.374 233.641H571.457V231.109H552.374V233.641Z" fill="white"/>
<path fill-rule="evenodd" clip-rule="evenodd" d="M560.995 226.044H571.457V223.511H560.995V226.044Z" fill="white"/>
<path fill-rule="evenodd" clip-rule="evenodd" d="M543.76 237.076L541.201 246.099L543.04 246.245L545.598 237.221L543.76 237.076Z" fill="white"/>
<path fill-rule="evenodd" clip-rule="evenodd" d="M210.172 353.953H269.709V308.941H210.172V353.953Z" fill="#02ECF1"/>
<path fill-rule="evenodd" clip-rule="evenodd" d="M370.405 434.305L354.229 339.004L355.43 338.808L371.606 434.109L370.405 434.305Z" fill="black"/>
<path fill-rule="evenodd" clip-rule="evenodd" d="M340.703 434.305L324.526 339.004L325.727 338.808L341.905 434.109L340.703 434.305Z" fill="black"/>
<path fill-rule="evenodd" clip-rule="evenodd" d="M328.573 359.757H358.54V358.564H328.573V359.757Z" fill="black"/>
<path fill-rule="evenodd" clip-rule="evenodd" d="M330.696 372.482H360.664V371.289H330.696V372.482Z" fill="black"/>
<path fill-rule="evenodd" clip-rule="evenodd" d="M332.818 385.206H362.785V384.013H332.818V385.206Z" fill="black"/>
<path fill-rule="evenodd" clip-rule="evenodd" d="M334.939 397.929H364.906V396.736H334.939V397.929Z" fill="black"/>
<path fill-rule="evenodd" clip-rule="evenodd" d="M337.06 410.654H367.027V409.461H337.06V410.654Z" fill="black"/>
<path fill-rule="evenodd" clip-rule="evenodd" d="M339.181 423.378H369.149V422.185H339.181V423.378Z" fill="black"/>
<path fill-rule="evenodd" clip-rule="evenodd" d="M308.671 434.305L307.47 434.109L323.646 338.808L324.848 339.004L308.671 434.305Z" fill="#525252"/>
<path fill-rule="evenodd" clip-rule="evenodd" d="M338.373 434.305L337.172 434.109L353.348 338.808L354.549 339.004L338.373 434.305Z" fill="#525252"/>
<path fill-rule="evenodd" clip-rule="evenodd" d="M320.534 359.757H350.501V358.564H320.534V359.757Z" fill="#525252"/>
<path fill-rule="evenodd" clip-rule="evenodd" d="M318.413 372.482H348.38V371.289H318.413V372.482Z" fill="#525252"/>
<path fill-rule="evenodd" clip-rule="evenodd" d="M316.291 385.206H346.258V384.013H316.291V385.206Z" fill="#525252"/>
<path fill-rule="evenodd" clip-rule="evenodd" d="M314.17 397.929H344.137V396.736H314.17V397.929Z" fill="#525252"/>
<path fill-rule="evenodd" clip-rule="evenodd" d="M312.048 410.654H342.015V409.461H312.048V410.654Z" fill="#525252"/>
<path fill-rule="evenodd" clip-rule="evenodd" d="M309.927 423.378H339.894V422.185H309.927V423.378Z" fill="#525252"/>
<path fill-rule="evenodd" clip-rule="evenodd" d="M321.824 341.003H358.372V337.424H321.824V341.003Z" fill="black"/>
<path fill-rule="evenodd" clip-rule="evenodd" d="M454.992 481.023L452.514 456.067L449.328 429.378L451.806 429.032L457.47 454.334L466.319 455.027L475.522 429.378L478 429.725L471.274 457.106L471.628 480.33L454.992 481.023Z" fill="#FFCA00"/>
<path fill-rule="evenodd" clip-rule="evenodd" d="M458.141 446.929C457.472 449.32 458.527 453.158 460.97 453.813C463.412 454.467 466.318 451.692 466.987 449.3C467.656 446.908 466.218 444.438 463.775 443.783C461.332 443.128 458.81 444.537 458.141 446.929Z" fill="#FFD0D4"/>
<path fill-rule="evenodd" clip-rule="evenodd" d="M461.407 445.548C460.907 445.414 460.208 445.077 459.941 444.618C459.915 444.575 459.906 444.533 459.89 444.491C460.975 443.724 462.382 443.41 463.774 443.784C466.218 444.437 467.655 446.909 466.986 449.301C466.509 451.008 464.89 452.905 463.115 453.616C463.148 453.133 463.267 452.655 463.392 452.187C463.899 450.295 464.463 448.419 465.083 446.562C463.832 446.317 462.602 445.977 461.407 445.548Z" fill="black"/>
<path fill-rule="evenodd" clip-rule="evenodd" d="M464.261 449.205C464.591 448.969 465.045 448.86 465.422 449.019C465.508 449.056 465.591 449.106 465.658 449.173C465.841 449.35 465.894 449.622 465.871 449.874C465.809 450.568 465.227 451.15 464.547 451.357C464.355 451.415 464.15 451.447 463.95 451.418C463.75 451.388 463.555 451.291 463.44 451.129C463.013 450.531 463.784 449.544 464.261 449.205Z" fill="#FFD0D4"/>
<path fill-rule="evenodd" clip-rule="evenodd" d="M471.629 480.33L469.171 518.608H466.468L464.172 480.642L461.756 480.742L460.281 519.544L458.194 519.496L454.992 481.023L454.521 476.283L471.569 476.501L471.629 480.33Z" fill="white"/>
<path fill-rule="evenodd" clip-rule="evenodd" d="M469.172 518.607L475.118 519.249L474.903 520.152H466.196L466.467 518.607H469.172Z" fill="#250F8A"/>
<path fill-rule="evenodd" clip-rule="evenodd" d="M460.28 519.544V520.631L452.112 520.934V519.933L458.193 519.496L460.28 519.544Z" fill="#250F8A"/>
<path fill-rule="evenodd" clip-rule="evenodd" d="M453.221 427.992C453.221 429.141 452.271 430.071 451.098 430.071C449.925 430.071 448.975 429.141 448.975 427.992C448.975 426.843 449.925 425.913 451.098 425.913C452.271 425.913 453.221 426.843 453.221 427.992Z" fill="#FFD0D4"/>
<path fill-rule="evenodd" clip-rule="evenodd" d="M477.999 428.685C477.999 429.834 477.049 430.764 475.876 430.764C474.703 430.764 473.753 429.834 473.753 428.685C473.753 427.536 474.703 426.606 475.876 426.606C477.049 426.606 477.999 427.536 477.999 428.685Z" fill="#FFD0D4"/>
<path fill-rule="evenodd" clip-rule="evenodd" d="M231.021 406.295L228.543 381.339L225.357 354.65L227.835 354.302L233.499 379.606L242.347 380.299L251.551 354.65L254.029 354.997L247.303 382.378L247.657 405.602L231.021 406.295Z" fill="#2D109F"/>
<path fill-rule="evenodd" clip-rule="evenodd" d="M229.25 353.263C229.25 354.412 228.3 355.342 227.127 355.342C225.954 355.342 225.003 354.412 225.003 353.263C225.003 352.114 225.954 351.184 227.127 351.184C228.3 351.184 229.25 352.114 229.25 353.263Z" fill="#FFD0D4"/>
<path fill-rule="evenodd" clip-rule="evenodd" d="M254.028 353.956C254.028 355.105 253.078 356.036 251.905 356.036C250.732 356.036 249.781 355.105 249.781 353.956C249.781 352.808 250.732 351.877 251.905 351.877C253.078 351.877 254.028 352.808 254.028 353.956Z" fill="#FFD0D4"/>
<path fill-rule="evenodd" clip-rule="evenodd" d="M242.009 376.55C242.028 376.523 242.049 376.496 242.067 376.47C242.205 376.278 242.332 376.082 242.446 375.884C242.462 375.859 242.473 375.833 242.489 375.808C242.583 375.639 242.667 375.471 242.742 375.302C242.765 375.25 242.787 375.2 242.809 375.15C242.89 374.956 242.961 374.763 243.015 374.57C243.182 373.973 243.218 373.37 243.139 372.792C243.087 372.412 242.97 372.052 242.825 371.704C242.531 370.998 242.071 370.363 241.456 369.88C241.316 369.77 241.155 369.682 241 369.588C240.889 369.52 240.788 369.44 240.67 369.381C240.398 369.246 240.108 369.136 239.804 369.054H239.801C239.469 368.965 239.136 368.921 238.806 368.906C238.734 368.903 238.663 368.914 238.59 368.914C238.322 368.914 238.058 368.93 237.798 368.976C237.747 368.985 237.697 369 237.647 369.011C237.36 369.07 237.083 369.156 236.814 369.268L236.759 369.292C235.537 369.817 234.549 370.84 234.169 372.2C233.502 374.591 234.557 378.428 236.999 379.083C238.133 379.387 239.365 378.947 240.429 378.154C240.43 378.153 240.432 378.152 240.434 378.15C240.836 377.85 241.213 377.499 241.552 377.117C241.565 377.102 241.577 377.086 241.591 377.071C241.738 376.903 241.877 376.727 242.009 376.55Z" fill="black"/>
<path fill-rule="evenodd" clip-rule="evenodd" d="M247.657 405.602L245.201 443.879H242.496L240.2 405.912L237.785 406.013L236.309 444.815L234.222 444.768L231.02 406.295L230.55 401.554L247.598 401.772L247.657 405.602Z" fill="#FFCA00"/>
<path fill-rule="evenodd" clip-rule="evenodd" d="M245.201 443.879L251.146 444.52L250.932 445.422H242.224L242.497 443.879H245.201Z" fill="#2D109F"/>
<path fill-rule="evenodd" clip-rule="evenodd" d="M236.308 444.815V445.902L228.141 446.205V445.204L234.223 444.768L236.308 444.815Z" fill="#2D109F"/>
<path fill-rule="evenodd" clip-rule="evenodd" d="M412.321 428.147H514.653V368.501H412.321V428.147Z" fill="white"/>
<path fill-rule="evenodd" clip-rule="evenodd" d="M463.529 420.322H509.181V376.037H463.529V420.322Z" fill="#250F8A"/>
<path fill-rule="evenodd" clip-rule="evenodd" d="M418.115 380.216H457.983V376.456H418.115V380.216Z" fill="#250F8A"/>
<path fill-rule="evenodd" clip-rule="evenodd" d="M418.115 389.406H457.983V385.647H418.115V389.406Z" fill="#250F8A"/>
<path fill-rule="evenodd" clip-rule="evenodd" d="M418.115 398.597H457.983V394.837H418.115V398.597Z" fill="#250F8A"/>
<path fill-rule="evenodd" clip-rule="evenodd" d="M418.115 407.789H457.983V404.029H418.115V407.789Z" fill="#250F8A"/>
<path fill-rule="evenodd" clip-rule="evenodd" d="M418.115 416.979H457.983V413.22H418.115V416.979Z" fill="#250F8A"/>
<path fill-rule="evenodd" clip-rule="evenodd" d="M338.75 261.49C339.204 261.843 339.689 262.194 340.245 262.329C340.242 262.477 340.222 262.62 340.233 262.77C340.446 265.536 343.027 269.191 345.851 268.983C346.055 268.969 346.252 268.929 346.447 268.877V268.876C347.212 268.671 347.9 268.19 348.483 267.549C348.501 267.529 348.52 267.512 348.538 267.492C348.63 267.387 348.719 267.277 348.806 267.165C348.834 267.128 348.864 267.092 348.891 267.055C348.97 266.95 349.043 266.842 349.116 266.732C349.15 266.682 349.183 266.632 349.216 266.581C349.282 266.476 349.344 266.369 349.405 266.262C349.44 266.2 349.476 266.138 349.508 266.076C349.563 265.972 349.616 265.867 349.666 265.761C349.7 265.689 349.734 265.617 349.767 265.544C349.811 265.444 349.853 265.342 349.895 265.241C349.928 265.159 349.958 265.076 349.988 264.994C350.024 264.897 350.058 264.801 350.09 264.703C350.119 264.612 350.146 264.523 350.171 264.432C350.197 264.34 350.224 264.25 350.248 264.157C350.272 264.059 350.293 263.962 350.313 263.864C350.331 263.778 350.35 263.694 350.366 263.608C350.384 263.503 350.398 263.399 350.411 263.294C350.422 263.218 350.434 263.14 350.443 263.064C350.454 262.947 350.459 262.832 350.465 262.719C350.467 262.657 350.473 262.593 350.475 262.532C350.476 262.461 350.472 262.396 350.47 262.328C350.847 262.49 351.262 262.584 351.699 262.584C353.381 262.584 354.745 261.249 354.745 259.602C354.745 257.955 353.381 256.62 351.699 256.62C350.338 256.62 349.199 257.5 348.809 258.707C348.768 258.669 348.734 258.624 348.692 258.588C348.443 258.378 348.173 258.192 347.888 258.032C347.316 257.712 346.678 257.498 346.001 257.413C345.664 257.37 345.316 257.36 344.964 257.387C342.918 257.537 341.257 258.85 340.569 260.609C340.151 260.566 339.733 260.524 339.312 260.515C338.917 260.506 338.38 260.653 338.414 261.039C338.431 261.23 338.598 261.371 338.75 261.49Z" fill="#E5FDFD"/>
<path fill-rule="evenodd" clip-rule="evenodd" d="M322.926 259.376L325.412 261.859C324.495 261.206 323.636 260.573 322.868 259.988L322.926 259.376ZM390.612 301.448L374.275 302.175L363.05 284.251L363.287 284.098L350.573 270.726L347.793 270.432L330.838 262.212L324.732 256.774L322.996 258.635L326.526 221.234L275.705 216.634C275.901 216.183 276.009 215.687 276.009 215.165C276.009 213.296 274.611 211.757 272.783 211.47V136.035H271.565V211.47C269.738 211.757 268.339 213.296 268.339 215.165C268.339 215.444 268.374 215.714 268.434 215.976L224.521 212.003L219.662 263.476L321.667 272.707L322.468 264.238C325.874 267.344 330.279 270.86 332.522 271.815L340.805 275.337L350.342 291.97L350.278 292.01L350.43 292.128L350.524 292.291L350.591 292.249L350.898 292.484L353.575 315.062L356.823 334.943L350.731 335.739L351.21 337.412H360.096L359.236 314.955L360.744 300.018L371.801 308.477L389.942 304.405L391.699 308.91L393.12 308.313L390.612 301.448Z" fill="#E5FDFD"/>
<path fill-rule="evenodd" clip-rule="evenodd" d="M195.295 263.476L297.3 272.707L302.16 221.234L200.153 212.003L195.295 263.476Z" fill="#02ECF1"/>
<path fill-rule="evenodd" clip-rule="evenodd" d="M300.366 256.774L306.471 262.213L326.596 271.968L317.743 274.173L304.421 265.227L298.238 259.055L300.366 256.774Z" fill="#FF7E6E"/>
<path fill-rule="evenodd" clip-rule="evenodd" d="M326.094 262.019C326.306 264.784 324.31 268.777 321.485 268.983C318.661 269.192 316.078 265.535 315.866 262.77C315.654 260.005 317.771 257.594 320.596 257.387C323.42 257.179 325.882 259.254 326.094 262.019Z" fill="#FFD0D4"/>
<path fill-rule="evenodd" clip-rule="evenodd" d="M296.062 255.763C296.039 255.765 295.19 255.335 295.19 255.335L294.369 256.653L290.2 254.363L288.816 255.872L294.696 260.221L295.978 258.646L295.31 257.756L295.583 256.782L296.062 255.763Z" fill="#FFD0D4"/>
<path fill-rule="evenodd" clip-rule="evenodd" d="M337.448 289.413L334.868 314.956L335.728 337.412H326.842L326.365 335.738L332.456 334.944L329.207 315.061L326.277 290.335L337.448 289.413Z" fill="#250F8A"/>
<path fill-rule="evenodd" clip-rule="evenodd" d="M296.058 258.001C298.641 260.365 307.865 266.887 311.259 267.859L318.364 269.895L326.207 270.726L338.919 284.098L326.158 292.291L316.437 275.337L308.156 271.815C304.751 270.367 296.357 263.012 294.049 260.165L296.058 258.001Z" fill="#FA7564"/>
<path fill-rule="evenodd" clip-rule="evenodd" d="M316.595 260.639C316.048 260.568 315.497 260.527 314.945 260.515C314.549 260.506 314.012 260.653 314.047 261.04C314.064 261.23 314.23 261.371 314.384 261.491C314.896 261.89 315.446 262.304 316.096 262.383C316.645 262.45 317.22 262.25 317.603 261.862C317.949 261.512 318.192 260.987 318.005 260.542C317.541 260.679 317.078 260.702 316.595 260.639Z" fill="#FFD0D4"/>
<path fill-rule="evenodd" clip-rule="evenodd" d="M124.898 399.563H146.015C146.498 399.563 146.937 399.284 147.132 398.848C147.325 398.413 147.238 397.908 146.909 397.559L126.604 376.088L124.817 377.709L143.226 397.178H124.898V399.563Z" fill="#250F8A"/>
<path fill-rule="evenodd" clip-rule="evenodd" d="M322.08 268.877C324.584 268.203 326.291 264.585 326.095 262.019C325.883 259.254 323.42 257.179 320.597 257.387C320.426 257.399 320.268 257.445 320.103 257.473C319.989 257.882 319.95 258.315 320.021 258.671C320.3 260.062 321.346 261.336 322.659 261.933C322.659 261.933 322.65 268.068 322.08 268.877Z" fill="#FA7564"/>
<path fill-rule="evenodd" clip-rule="evenodd" d="M323.35 262.495C323.776 262.493 324.192 262.654 324.533 262.903C325.633 263.704 324.962 265.396 323.83 265.803C323.465 265.936 323.069 265.969 322.679 265.952C322.342 265.938 321.988 265.878 321.728 265.668C321.477 265.464 321.348 265.141 321.329 264.821C321.312 264.503 321.396 264.186 321.51 263.886C321.77 263.204 322.581 262.499 323.35 262.495Z" fill="#FFD0D4"/>
<path fill-rule="evenodd" clip-rule="evenodd" d="M366.245 301.448L349.91 302.175L338.525 283.998L325.911 292.01L347.435 308.477L365.574 304.406L367.332 308.91L368.754 308.314L366.245 301.448Z" fill="#472BC7"/>
<path fill-rule="evenodd" clip-rule="evenodd" d="M330.378 259.602C330.378 261.249 329.015 262.584 327.332 262.584C325.65 262.584 324.287 261.249 324.287 259.602C324.287 257.956 325.65 256.62 327.332 256.62C329.015 256.62 330.378 257.956 330.378 259.602Z" fill="#FA7564"/>
<path fill-rule="evenodd" clip-rule="evenodd" d="M126.247 406.833H145.21V155.522H126.247V406.833ZM123.81 409.219H147.647V153.136H123.81V409.219Z" fill="#250F8A"/>
<path fill-rule="evenodd" clip-rule="evenodd" d="M120.547 417.968H150.909V396.664H120.547V417.968Z" fill="#472BC7"/>
<path fill-rule="evenodd" clip-rule="evenodd" d="M124.898 311.395H146.015C146.498 311.395 146.937 311.114 147.132 310.679C147.325 310.245 147.238 309.739 146.909 309.391L126.604 287.919L124.817 289.539L143.226 309.009H124.898V311.395Z" fill="#250F8A"/>
<path fill-rule="evenodd" clip-rule="evenodd" d="M124.898 333.436H146.015C146.498 333.436 146.937 333.156 147.132 332.721C147.325 332.286 147.238 331.781 146.909 331.432L126.604 309.961L124.817 311.582L143.226 331.051H124.898V333.436Z" fill="#250F8A"/>
<path fill-rule="evenodd" clip-rule="evenodd" d="M124.898 355.479H146.015C146.498 355.479 146.937 355.199 147.132 354.763C147.325 354.329 147.238 353.823 146.909 353.475L126.604 332.003L124.817 333.625L143.226 353.093H124.898V355.479Z" fill="#250F8A"/>
<path fill-rule="evenodd" clip-rule="evenodd" d="M124.898 377.521H146.015C146.498 377.521 146.937 377.241 147.132 376.806C147.325 376.371 147.238 375.866 146.909 375.517L126.604 354.046L124.817 355.667L143.226 375.136H124.898V377.521Z" fill="#250F8A"/>
<path fill-rule="evenodd" clip-rule="evenodd" d="M124.898 289.881H146.015C146.498 289.881 146.937 289.601 147.132 289.166C147.325 288.731 147.238 288.225 146.909 287.878L126.604 266.406L124.817 268.026L143.226 287.495H124.898V289.881Z" fill="#250F8A"/>
<path fill-rule="evenodd" clip-rule="evenodd" d="M124.898 268.368H146.015C146.498 268.368 146.937 268.087 147.132 267.652C147.325 267.218 147.238 266.712 146.909 266.365L126.604 244.892L124.817 246.512L143.226 265.982H124.898V268.368Z" fill="#250F8A"/>
<path fill-rule="evenodd" clip-rule="evenodd" d="M124.898 246.855H146.015C146.498 246.855 146.937 246.575 147.132 246.139C147.325 245.705 147.238 245.199 146.909 244.852L126.604 223.38L124.817 225L143.226 244.469H124.898V246.855Z" fill="#250F8A"/>
<path fill-rule="evenodd" clip-rule="evenodd" d="M124.898 225.341H146.015C146.498 225.341 146.937 225.061 147.132 224.626C147.325 224.191 147.238 223.686 146.909 223.339L126.604 201.866L124.817 203.486L143.226 222.956H124.898V225.341Z" fill="#250F8A"/>
<path fill-rule="evenodd" clip-rule="evenodd" d="M124.898 203.828H146.015C146.498 203.828 146.937 203.548 147.132 203.113C147.325 202.678 147.238 202.173 146.909 201.825L126.604 180.353L124.817 181.973L143.226 201.442H124.898V203.828Z" fill="#250F8A"/>
<path fill-rule="evenodd" clip-rule="evenodd" d="M124.898 182.315H146.015C146.498 182.315 146.937 182.035 147.132 181.599C147.325 181.165 147.238 180.659 146.909 180.312L126.604 158.84L124.817 160.46L143.226 179.929H124.898V182.315Z" fill="#250F8A"/>
<path fill-rule="evenodd" clip-rule="evenodd" d="M124.898 160.802H146.015C146.498 160.802 146.937 160.522 147.132 160.086C147.325 159.652 147.238 159.146 146.909 158.799L126.604 137.326L124.817 138.946L143.226 158.416H124.898V160.802Z" fill="#0089C7"/>
<path fill-rule="evenodd" clip-rule="evenodd" d="M123.851 161.23H162.493V129.33H123.851V161.23Z" fill="#472BC7"/>
<path fill-rule="evenodd" clip-rule="evenodd" d="M65.7808 147.653H104.423V129.33H65.7808V147.653Z" fill="#472BC7"/>
<path fill-rule="evenodd" clip-rule="evenodd" d="M66.4218 131.661H257.283C257.956 131.661 258.502 131.126 258.502 130.468C258.502 129.809 257.956 129.275 257.283 129.275H66.4218C65.7493 129.275 65.2036 129.809 65.2036 130.468C65.2036 131.126 65.7493 131.661 66.4218 131.661Z" fill="#250F8A"/>
<path fill-rule="evenodd" clip-rule="evenodd" d="M247.198 213.575H248.417V136.035H247.198V213.575Z" fill="#472BC7"/>
<path fill-rule="evenodd" clip-rule="evenodd" d="M110.191 423.534H161.266V414.16H110.191V423.534Z" fill="#250F8A"/>
<path fill-rule="evenodd" clip-rule="evenodd" d="M143.03 131.348C143.186 131.348 143.341 131.29 143.461 131.174L153.637 121.209H246.939L256.506 130.578C256.745 130.81 257.13 130.81 257.368 130.578C257.606 130.344 257.606 129.967 257.368 129.733L247.443 120.016H153.133L142.598 130.33C142.361 130.563 142.361 130.94 142.598 131.174C142.718 131.29 142.874 131.348 143.03 131.348Z" fill="#250F8A"/>
<path fill-rule="evenodd" clip-rule="evenodd" d="M65.6087 131.348C65.828 131.348 66.0399 131.231 66.1484 131.029L76.333 111.978H101.032L110.609 130.426C110.761 130.718 111.129 130.834 111.428 130.687C111.727 130.538 111.848 130.179 111.696 129.885L101.779 110.785H75.596L65.0702 130.475C64.913 130.767 65.0288 131.128 65.3273 131.28C65.4174 131.327 65.5136 131.348 65.6087 131.348Z" fill="#250F8A"/>
<path fill-rule="evenodd" clip-rule="evenodd" d="M243.341 136.035C243.341 138.451 245.341 140.41 247.808 140.41C250.274 140.41 252.274 138.451 252.274 136.035C252.274 133.619 250.274 131.661 247.808 131.661C245.341 131.661 243.341 133.619 243.341 136.035Z" fill="#472BC7"/>
<path fill-rule="evenodd" clip-rule="evenodd" d="M221.396 121.2C221.657 121.2 221.9 121.034 221.979 120.778C222.077 120.463 221.896 120.129 221.574 120.033L131.383 93.1042C131.245 93.0648 131.098 93.0708 130.967 93.1257L88.2208 110.792C87.9102 110.919 87.7652 111.269 87.8956 111.573C88.0271 111.877 88.3841 112.019 88.6935 111.89L131.238 94.3091L221.219 121.174C221.278 121.192 221.338 121.2 221.396 121.2Z" fill="#250F8A"/>
<path fill-rule="evenodd" clip-rule="evenodd" d="M145.394 131.428C145.538 131.428 145.684 131.403 145.827 131.349C146.457 131.115 146.772 130.427 146.533 129.81L132.331 93.2188C132.14 92.7225 131.639 92.41 131.093 92.4541C130.552 92.497 130.105 92.8859 129.998 93.4072L122.657 129.095C122.524 129.74 122.951 130.37 123.611 130.5C124.268 130.626 124.913 130.211 125.046 129.566L131.554 97.9296L144.255 130.659C144.44 131.135 144.903 131.428 145.394 131.428Z" fill="#250F8A"/>
<path fill-rule="evenodd" clip-rule="evenodd" d="M128.738 93.6425C128.738 94.9702 129.837 96.0462 131.192 96.0462C132.548 96.0462 133.647 94.9702 133.647 93.6425C133.647 92.3148 132.548 91.2388 131.192 91.2388C129.837 91.2388 128.738 92.3148 128.738 93.6425Z" fill="#472BC7"/>
<path fill-rule="evenodd" clip-rule="evenodd" d="M234.238 131.462C234.372 131.462 234.507 131.419 234.621 131.33L246.583 121.861V130.714C246.583 131.043 246.856 131.31 247.192 131.31C247.529 131.31 247.801 131.043 247.801 130.714V120.612C247.801 120.382 247.666 120.173 247.455 120.074C247.244 119.974 246.992 120.003 246.809 120.148L233.854 130.401C233.593 130.609 233.552 130.985 233.764 131.24C233.884 131.387 234.06 131.462 234.238 131.462Z" fill="#250F8A"/>
<path fill-rule="evenodd" clip-rule="evenodd" d="M222.67 131.462C222.804 131.462 222.939 131.419 223.053 131.33L235.016 121.861V130.714C235.016 131.043 235.288 131.31 235.625 131.31C235.961 131.31 236.234 131.043 236.234 130.714V120.612C236.234 120.382 236.099 120.173 235.887 120.074C235.677 119.974 235.425 120.003 235.241 120.148L222.286 130.401C222.024 130.609 221.984 130.985 222.196 131.24C222.316 131.387 222.492 131.462 222.67 131.462Z" fill="#250F8A"/>
<path fill-rule="evenodd" clip-rule="evenodd" d="M211.102 131.462C211.236 131.462 211.371 131.419 211.484 131.33L223.448 121.861V130.714C223.448 131.043 223.719 131.31 224.057 131.31C224.393 131.31 224.666 131.043 224.666 130.714V120.612C224.666 120.382 224.531 120.173 224.319 120.074C224.109 119.974 223.857 120.003 223.673 120.148L210.718 130.401C210.456 130.609 210.416 130.985 210.628 131.24C210.747 131.387 210.924 131.462 211.102 131.462Z" fill="#250F8A"/>
<path fill-rule="evenodd" clip-rule="evenodd" d="M199.534 131.462C199.668 131.462 199.804 131.419 199.917 131.33L211.879 121.861V130.714C211.879 131.043 212.152 131.31 212.488 131.31C212.826 131.31 213.097 131.043 213.097 130.714V120.612C213.097 120.382 212.962 120.173 212.751 120.074C212.541 119.974 212.29 120.003 212.106 120.148L199.151 130.401C198.889 130.609 198.848 130.985 199.06 131.24C199.18 131.387 199.356 131.462 199.534 131.462Z" fill="#250F8A"/>
<path fill-rule="evenodd" clip-rule="evenodd" d="M187.966 131.462C188.1 131.462 188.235 131.419 188.349 131.33L200.312 121.861V130.714C200.312 131.043 200.584 131.31 200.921 131.31C201.257 131.31 201.53 131.043 201.53 130.714V120.612C201.53 120.382 201.395 120.173 201.183 120.074C200.972 119.974 200.721 120.003 200.537 120.148L187.582 130.401C187.321 130.609 187.28 130.985 187.492 131.24C187.612 131.387 187.788 131.462 187.966 131.462Z" fill="#250F8A"/>
<path fill-rule="evenodd" clip-rule="evenodd" d="M176.398 131.462C176.532 131.462 176.667 131.419 176.781 131.33L188.744 121.861V130.714C188.744 131.043 189.016 131.31 189.353 131.31C189.689 131.31 189.962 131.043 189.962 130.714V120.612C189.962 120.382 189.827 120.173 189.615 120.074C189.405 119.974 189.153 120.003 188.969 120.148L176.014 130.401C175.752 130.609 175.712 130.985 175.924 131.24C176.044 131.387 176.22 131.462 176.398 131.462Z" fill="#250F8A"/>
<path fill-rule="evenodd" clip-rule="evenodd" d="M164.831 131.462C164.965 131.462 165.1 131.419 165.213 131.33L177.176 121.861V130.714C177.176 131.043 177.448 131.31 177.786 131.31C178.122 131.31 178.395 131.043 178.395 130.714V120.612C178.395 120.382 178.259 120.173 178.047 120.074C177.838 119.974 177.586 120.003 177.402 120.148L164.447 130.401C164.185 130.609 164.145 130.985 164.357 131.24C164.476 131.387 164.653 131.462 164.831 131.462Z" fill="#250F8A"/>
<path fill-rule="evenodd" clip-rule="evenodd" d="M153.262 131.462C153.396 131.462 153.532 131.419 153.645 131.33L165.608 121.861V130.714C165.608 131.043 165.88 131.31 166.217 131.31C166.554 131.31 166.826 131.043 166.826 130.714V120.612C166.826 120.382 166.691 120.173 166.479 120.074C166.268 119.974 166.016 120.003 165.834 120.148L152.879 130.401C152.617 130.609 152.576 130.985 152.788 131.24C152.908 131.387 153.084 131.462 153.262 131.462Z" fill="#250F8A"/>
<path fill-rule="evenodd" clip-rule="evenodd" d="M84.8754 131.462C85.0484 131.462 85.2202 131.391 85.3408 131.251L100.877 113.296V130.714C100.877 131.043 101.15 131.311 101.486 131.311C101.824 131.311 102.096 131.043 102.096 130.714V111.67C102.096 111.42 101.936 111.196 101.697 111.11C101.456 111.023 101.188 111.093 101.022 111.284L84.4113 130.48C84.1932 130.731 84.2261 131.108 84.4819 131.32C84.5965 131.416 84.7366 131.462 84.8754 131.462Z" fill="#250F8A"/>
<path fill-rule="evenodd" clip-rule="evenodd" d="M72.926 131.462C73.1234 131.462 73.3171 131.368 73.434 131.195L85.2731 113.654V130.714C85.2731 131.043 85.5448 131.311 85.8822 131.311C86.2185 131.311 86.4914 131.043 86.4914 130.714V111.67C86.4914 111.407 86.3147 111.174 86.0577 111.099C85.797 111.025 85.5216 111.122 85.3742 111.341L72.418 130.536C72.2328 130.812 72.3108 131.182 72.591 131.363C72.6946 131.43 72.8103 131.462 72.926 131.462Z" fill="#250F8A"/>
<path fill-rule="evenodd" clip-rule="evenodd" d="M243.972 215.166C243.972 217.24 245.69 218.921 247.807 218.921C249.925 218.921 251.643 217.24 251.643 215.166C251.643 213.091 249.925 211.411 247.807 211.411C245.69 211.411 243.972 213.091 243.972 215.166Z" fill="#472BC7"/>
<path fill-rule="evenodd" clip-rule="evenodd" d="M560.474 310.486L559.496 297.261L561.006 287.527L566.136 258.842L563.658 258.495L557.996 283.797L549.146 284.49L539.942 258.842L537.464 259.188L544.191 286.57L546.55 297.037L546.274 309.793L560.474 310.486Z" fill="white"/>
<path fill-rule="evenodd" clip-rule="evenodd" d="M548.101 277.196C548.101 279.676 550.153 283.105 552.686 283.105C555.219 283.105 557.271 279.676 557.271 277.196C557.271 274.716 555.219 272.706 552.686 272.706C550.153 272.706 548.101 274.716 548.101 277.196Z" fill="#FFD0D4"/>
<path fill-rule="evenodd" clip-rule="evenodd" d="M554.617 277.809C554.873 277.495 555.28 277.274 555.687 277.329C555.78 277.342 555.873 277.37 555.956 277.415C556.18 277.54 556.305 277.79 556.352 278.038C556.478 278.723 556.074 279.436 555.473 279.81C555.303 279.917 555.115 280 554.914 280.024C554.713 280.047 554.5 280.004 554.344 279.877C553.771 279.412 554.249 278.26 554.617 277.809Z" fill="#FFD0D4"/>
<path fill-rule="evenodd" clip-rule="evenodd" d="M554.613 277.559C554.717 277.608 554.837 277.655 554.943 277.613C555.051 277.572 555.107 277.46 555.177 277.371C555.453 277.019 556.057 277.019 556.377 277.331C556.699 277.644 556.731 278.177 556.509 278.563C556.286 278.949 555.851 279.19 555.403 279.254C555.108 280.284 554.987 281.36 555.045 282.428C555.774 282.48 556.504 282.533 557.233 282.585C557.375 282.596 557.531 282.602 557.643 282.517C557.748 282.436 557.786 282.299 557.814 282.171C558.087 280.947 558.222 279.693 558.219 278.44C558.217 277.218 558.068 275.952 557.425 274.906C556.654 273.655 553.492 271.595 551.949 272.749C550.251 274.022 553.436 277.006 554.613 277.559Z" fill="black"/>
<path fill-rule="evenodd" clip-rule="evenodd" d="M550.745 275.73C550.052 276.757 549.053 277.638 547.836 277.95C547.485 276.618 547.79 275.136 548.64 274.042C549.119 273.426 550.849 271.923 551.77 272.276C552.723 272.642 551.215 275.034 550.745 275.73Z" fill="black"/>
<path fill-rule="evenodd" clip-rule="evenodd" d="M559.956 301.105L546.419 300.485L536.004 346.161L531.172 343.28L537.054 350.275L550.922 312.627L550.711 329.702L560.113 341.901L560.714 346.304L560.963 348.176L562.639 347.981L562.943 341.271L555.666 329.682L560.801 310.498L559.956 301.105Z" fill="#250F8A"/>
<path fill-rule="evenodd" clip-rule="evenodd" d="M560.812 271.217L563.743 272.224L566.137 258.842L563.659 258.494L560.812 271.217Z" fill="#FFD0D4"/>
<path fill-rule="evenodd" clip-rule="evenodd" d="M543.743 269.432L540.307 270.76L537.465 259.188L539.943 258.841L543.743 269.432Z" fill="#FFD0D4"/>
<path fill-rule="evenodd" clip-rule="evenodd" d="M555.227 284.014L552.686 288.432L551.407 284.313L555.227 284.014Z" fill="#FFD0D4"/>
<path fill-rule="evenodd" clip-rule="evenodd" d="M536.356 257.455C536.356 258.604 537.307 259.534 538.481 259.534C539.654 259.534 540.604 258.604 540.604 257.455C540.604 256.306 539.654 255.376 538.481 255.376C537.307 255.376 536.356 256.306 536.356 257.455Z" fill="#FFD0D4"/>
<path fill-rule="evenodd" clip-rule="evenodd" d="M563.019 257.844C563.019 258.992 563.969 259.923 565.142 259.923C566.315 259.923 567.266 258.992 567.266 257.844C567.266 256.695 566.315 255.764 565.142 255.764C563.969 255.764 563.019 256.695 563.019 257.844Z" fill="#FFD0D4"/>
<path fill-rule="evenodd" clip-rule="evenodd" d="M407.002 171.579H342.999C340.799 171.579 339 169.791 339 167.606V164.794C339 162.609 340.799 160.821 342.999 160.821H407.002C409.202 160.821 411 162.609 411 164.794V167.606C411 169.791 409.202 171.579 407.002 171.579Z" fill="white"/>
<path fill-rule="evenodd" clip-rule="evenodd" d="M82.3818 477.276L82.3331 480.855L228.512 482.759L260.179 467.069L260.227 463.49L82.3818 477.276Z" fill="#FFCA00"/>
<path fill-rule="evenodd" clip-rule="evenodd" d="M228.512 482.759L82.3327 480.855L114 465.167L260.18 467.07L228.512 482.759Z" fill="#FFCA00"/>
<path fill-rule="evenodd" clip-rule="evenodd" d="M228.56 479.179L82.3822 477.276L114.049 461.587L260.228 463.491L228.56 479.179Z" fill="white"/>
<path fill-rule="evenodd" clip-rule="evenodd" d="M194.607 465.394L114.286 464.347L116.681 463.16L197.001 464.207L194.607 465.394Z" fill="#FA7564"/>
<path fill-rule="evenodd" clip-rule="evenodd" d="M188.621 468.358L108.299 467.313L110.694 466.126L191.016 467.172L188.621 468.358Z" fill="#FA7564"/>
<path fill-rule="evenodd" clip-rule="evenodd" d="M182.874 471.205L102.552 470.16L104.947 468.973L185.269 470.02L182.874 471.205Z" fill="#FA7564"/>
<path fill-rule="evenodd" clip-rule="evenodd" d="M177.366 473.935L97.0452 472.889L99.4403 471.702L179.762 472.748L177.366 473.935Z" fill="#FA7564"/>
<path fill-rule="evenodd" clip-rule="evenodd" d="M228.452 476.912L176.502 476.237L200.685 464.254L252.637 464.931L228.452 476.912Z" fill="#FA7564"/>
<path fill-rule="evenodd" clip-rule="evenodd" d="M107.23 512.235L107.181 515.814L253.359 517.718L285.026 502.029L285.075 498.45L107.23 512.235Z" fill="#2D109F"/>
<path fill-rule="evenodd" clip-rule="evenodd" d="M253.359 517.718L107.181 515.814L138.847 500.125L285.027 502.029L253.359 517.718Z" fill="#2D109F"/>
<path fill-rule="evenodd" clip-rule="evenodd" d="M253.408 514.138L107.23 512.234L138.896 496.546L285.076 498.45L253.408 514.138Z" fill="white"/>
<path fill-rule="evenodd" clip-rule="evenodd" d="M219.455 500.352L139.133 499.307L141.527 498.12L221.849 499.166L219.455 500.352Z" fill="#FA7564"/>
<path fill-rule="evenodd" clip-rule="evenodd" d="M213.468 503.317L133.147 502.272L135.542 501.085L215.862 502.132L213.468 503.317Z" fill="#FA7564"/>
<path fill-rule="evenodd" clip-rule="evenodd" d="M207.721 506.165L127.4 505.12L129.795 503.933L210.116 504.979L207.721 506.165Z" fill="#FA7564"/>
<path fill-rule="evenodd" clip-rule="evenodd" d="M202.214 508.894L121.893 507.848L124.288 506.661L204.608 507.707L202.214 508.894Z" fill="#FA7564"/>
<path fill-rule="evenodd" clip-rule="evenodd" d="M253.3 511.871L201.348 511.196L225.533 499.213L277.485 499.89L253.3 511.871Z" fill="#FA7564"/>
<path fill-rule="evenodd" clip-rule="evenodd" d="M336.877 200.155H428.247V190.612H336.877V200.155Z" fill="#E5FDFD"/>
<path fill-rule="evenodd" clip-rule="evenodd" d="M336.877 248.603H428.247V208.506H336.877V248.603Z" fill="#E5FDFD"/>
<path fill-rule="evenodd" clip-rule="evenodd" d="M316.415 459.588L320.619 466.029L324.708 478.373L337.092 497.856L335.199 498.362L320.449 482.211L313.249 468.579L316.415 459.588Z" fill="#E7F8FC"/>
<path fill-rule="evenodd" clip-rule="evenodd" d="M290.928 468.287L275.181 493.991L277.227 494.706L296.241 470.934L290.928 468.287Z" fill="#2D109F"/>
<path fill-rule="evenodd" clip-rule="evenodd" d="M284.126 462.914C286.879 463.368 290.318 466.24 289.866 469.006C289.413 471.774 285.24 473.388 282.487 472.933C279.734 472.478 277.869 469.866 278.322 467.1C278.774 464.333 281.373 462.459 284.126 462.914Z" fill="#FFD0D4"/>
<path fill-rule="evenodd" clip-rule="evenodd" d="M280.572 471.725C280.377 472.234 280.208 472.755 280.068 473.282C279.969 473.66 279.988 474.213 280.373 474.271C280.564 474.3 280.74 474.173 280.892 474.055C281.402 473.657 281.934 473.226 282.162 472.62C282.353 472.107 282.293 471.508 282.003 471.046C281.741 470.63 281.284 470.271 280.805 470.344C280.833 470.824 280.746 471.274 280.572 471.725Z" fill="#FFD0D4"/>
<path fill-rule="evenodd" clip-rule="evenodd" d="M289.899 468.408C289.821 465.839 286.68 463.335 284.126 462.913C281.373 462.459 278.774 464.333 278.322 467.099C278.295 467.267 278.302 467.428 278.291 467.595C278.664 467.802 279.078 467.942 279.444 467.959C280.87 468.022 282.357 467.319 283.245 466.198C283.245 466.198 289.241 467.667 289.899 468.408Z" fill="black"/>
<path fill-rule="evenodd" clip-rule="evenodd" d="M283.955 465.666C284.051 465.256 284.305 464.894 284.628 464.626C285.666 463.759 287.165 464.807 287.301 465.993C287.345 466.376 287.286 466.766 287.179 467.136C287.086 467.456 286.947 467.782 286.68 467.983C286.423 468.177 286.077 468.224 285.761 468.165C285.444 468.106 285.154 467.95 284.887 467.769C284.28 467.356 283.78 466.408 283.955 465.666Z" fill="#FFD0D4"/>
<path fill-rule="evenodd" clip-rule="evenodd" d="M289.354 481.901L279.691 498.769L281.895 498.939L294.271 486.332L295.966 470.145C295.966 470.145 295.966 465.203 293.762 465.544C291.558 465.885 290.541 468.611 290.541 468.611L289.354 481.901Z" fill="#1E0880"/>
<path fill-rule="evenodd" clip-rule="evenodd" d="M289.622 465.703C299.604 460.738 310.968 459.192 310.968 459.192L316.408 469.881L291.897 473.893L289.622 465.703Z" fill="#1E0880"/>
<path fill-rule="evenodd" clip-rule="evenodd" d="M310.968 459.191L312.491 459.138C316.6 458.996 320.006 462.309 320 466.442L311.899 481.17L313.375 502.348H311.171L306.362 482.351L310.968 459.191Z" fill="white"/>
<path fill-rule="evenodd" clip-rule="evenodd" d="M277.862 496.537C277.862 497.974 276.756 499.139 275.39 499.139C274.026 499.139 272.918 497.974 272.918 496.537C272.918 495.101 274.026 493.934 275.39 493.934C276.756 493.934 277.862 495.101 277.862 496.537Z" fill="#FFD0D4"/>
<path fill-rule="evenodd" clip-rule="evenodd" d="M283.481 499.143C283.481 500.579 282.375 501.745 281.009 501.745C279.645 501.745 278.537 500.579 278.537 499.143C278.537 497.705 279.645 496.54 281.009 496.54C282.375 496.54 283.481 497.705 283.481 499.143Z" fill="#FFD0D4"/>
<path fill-rule="evenodd" clip-rule="evenodd" d="M313.376 502.348L313.781 504.451L303.19 504.687C303.19 504.687 303.778 503.15 304.132 503.269C304.485 503.386 311.171 502.348 311.171 502.348H313.376Z" fill="#250F8A"/>
<path fill-rule="evenodd" clip-rule="evenodd" d="M336.014 498.505L337.054 500.859L327.495 501.098L327.73 499.916L334.149 499.016L336.014 498.505Z" fill="#250F8A"/>
<rect opacity="0.5" width="119.345" height="14.753" rx="7.37649" transform="matrix(0.870779 -0.491674 0.508372 0.861138 515 118.768)" fill="url(#paint0_linear_0_741)"/>
<rect opacity="0.5" width="119.345" height="14.753" rx="7.37649" transform="matrix(0.870779 -0.491674 0.508372 0.861138 571 401.404)" fill="url(#paint1_linear_0_741)"/>
<rect opacity="0.5" width="119.345" height="14.753" rx="7.37649" transform="matrix(0.870779 -0.491674 0.508372 0.861138 365 59.1106)" fill="url(#paint2_linear_0_741)"/>
<rect opacity="0.3" width="99.4541" height="20.0223" rx="10.0111" transform="matrix(0.870779 -0.491674 0.508372 0.861138 25 272.311)" fill="url(#paint3_linear_0_741)"/>
<rect opacity="0.5" width="99.4541" height="20.0223" rx="10.0111" transform="matrix(0.870779 -0.491674 0.508372 0.861138 1 479.643)" fill="url(#paint4_linear_0_741)"/>
</g>
<defs>
<filter id="filter0_d_0_741" x="0.710876" y="3.09497" width="682.978" height="546.359" filterUnits="userSpaceOnUse" color-interpolation-filters="sRGB">
<feFlood flood-opacity="0" result="BackgroundImageFix"/>
<feColorMatrix in="SourceAlpha" type="matrix" values="0 0 0 0 0 0 0 0 0 0 0 0 0 0 0 0 0 0 127 0" result="hardAlpha"/>
<feOffset dy="4"/>
<feGaussianBlur stdDeviation="2"/>
<feComposite in2="hardAlpha" operator="out"/>
<feColorMatrix type="matrix" values="0 0 0 0 0 0 0 0 0 0 0 0 0 0 0 0 0 0 0.25 0"/>
<feBlend mode="normal" in2="BackgroundImageFix" result="effect1_dropShadow_0_741"/>
<feBlend mode="normal" in="SourceGraphic" in2="effect1_dropShadow_0_741" result="shape"/>
</filter>
<linearGradient id="paint0_linear_0_741" x1="119.345" y1="0" x2="0" y2="0" gradientUnits="userSpaceOnUse">
<stop stop-color="white" stop-opacity="0.01"/>
<stop offset="1" stop-color="#FFCA00"/>
<stop offset="1" stop-color="white"/>
</linearGradient>
<linearGradient id="paint1_linear_0_741" x1="119.345" y1="0" x2="0" y2="0" gradientUnits="userSpaceOnUse">
<stop stop-color="white" stop-opacity="0.01"/>
<stop offset="1" stop-color="#FA7564"/>
<stop offset="1" stop-color="white"/>
</linearGradient>
<linearGradient id="paint2_linear_0_741" x1="119.345" y1="0" x2="0" y2="0" gradientUnits="userSpaceOnUse">
<stop stop-color="white" stop-opacity="0.01"/>
<stop offset="1" stop-color="white"/>
<stop offset="1" stop-color="white"/>
</linearGradient>
<linearGradient id="paint3_linear_0_741" x1="99.4541" y1="0" x2="0" y2="0" gradientUnits="userSpaceOnUse">
<stop stop-color="white" stop-opacity="0.01"/>
<stop offset="1" stop-color="#06CCE2"/>
<stop offset="1" stop-color="white"/>
</linearGradient>
<linearGradient id="paint4_linear_0_741" x1="99.4541" y1="0" x2="0" y2="0" gradientUnits="userSpaceOnUse">
<stop stop-color="white" stop-opacity="0.01"/>
<stop offset="1" stop-color="#FA7564"/>
<stop offset="1" stop-color="white"/>
</linearGradient>
</defs>
</svg>
